# Blender v2.91.0 OBJ File: ''
# www.blender.org
mtllib square_top.mtl
o Big_Square_Top
v 55.799267 8.800000 38.796055
v 56.101898 8.800000 35.723381
v 56.101898 0.000000 35.723381
v 54.903000 8.800000 41.750645
v 55.799267 0.000000 38.796055
v 53.447544 8.800000 44.473614
v 54.903000 0.000000 41.750645
v 51.488831 8.800000 46.860313
v 53.447544 0.000000 44.473614
v 49.102131 8.800000 48.819027
v 51.488831 0.000000 46.860313
v 46.379162 8.800000 50.274483
v 49.102131 0.000000 48.819027
v 43.424572 8.800000 51.170750
v 46.379162 0.000000 50.274483
v 40.351898 8.800000 51.473381
v 43.424572 0.000000 51.170750
v 37.279224 8.800000 51.170750
v 40.351898 0.000000 51.473381
v 34.324635 8.800000 50.274483
v 37.279224 0.000000 51.170750
v 31.601667 8.800000 48.819027
v 34.324635 0.000000 50.274483
v 29.214966 8.800000 46.860313
v 31.601667 0.000000 48.819027
v 27.256252 8.800000 44.473614
v 29.214966 0.000000 46.860313
v 25.800795 8.800000 41.750645
v 27.256252 0.000000 44.473614
v 24.904530 8.800000 38.796055
v 25.800795 0.000000 41.750645
v 24.601898 8.800000 35.723381
v 24.904530 0.000000 38.796055
v 24.904530 8.800000 32.650707
v 24.601898 0.000000 35.723381
v 25.800795 8.800000 29.696117
v 24.904530 0.000000 32.650707
v 27.256252 8.800000 26.973150
v 25.800795 0.000000 29.696117
v 29.214966 8.800000 24.586451
v 27.256252 0.000000 26.973150
v 31.601667 8.800000 22.627735
v 29.214966 0.000000 24.586451
v 34.324635 8.800000 21.172279
v 31.601667 0.000000 22.627735
v 37.279224 8.800000 20.276014
v 34.324635 0.000000 21.172279
v 40.351898 8.800000 19.973381
v 37.279224 0.000000 20.276014
v 43.424572 8.800000 20.276014
v 40.351898 0.000000 19.973381
v 46.379162 8.800000 21.172279
v 43.424572 0.000000 20.276014
v 49.102131 8.800000 22.627735
v 46.379162 0.000000 21.172279
v 51.488831 8.800000 24.586451
v 49.102131 0.000000 22.627735
v 53.447544 8.800000 26.973150
v 51.488831 0.000000 24.586451
v 54.903000 8.800000 29.696117
v 53.447544 0.000000 26.973150
v 55.799267 8.800000 32.650707
v 54.903000 0.000000 29.696117
v 55.799267 0.000000 32.650707
v -9.132131 8.800000 22.392454
v -29.632130 8.800000 57.899494
v 70.000000 8.800000 70.000000
v 53.081181 8.800000 -17.938023
v 20.581181 8.800000 -17.938023
v -14.140949 8.800000 -29.505930
v -70.000000 8.800000 -70.000000
v -44.902847 8.800000 -51.855759
v -21.402849 8.800000 -51.855759
v -50.132130 8.800000 22.392454
v -52.164749 8.800000 -29.505930
v -33.152847 8.800000 -15.692977
v 20.581181 8.800000 -50.438023
v 70.000000 8.800000 -70.000000
v 53.081181 8.800000 -50.438023
v -70.000000 8.800000 70.000000
v 53.081181 0.000000 -17.938023
v -9.132131 0.000000 22.392454
v 70.000000 0.000000 70.000000
v -70.000000 0.000000 70.000000
v -29.632130 0.000000 57.899494
v -33.152847 0.000000 -15.692977
v -14.140949 0.000000 -29.505930
v -50.132130 0.000000 22.392454
v 20.581181 0.000000 -17.938023
v -70.000000 0.000000 -70.000000
v 20.581181 0.000000 -50.438023
v -21.402849 0.000000 -51.855759
v 70.000000 0.000000 -70.000000
v -52.164749 0.000000 -29.505930
v -44.902847 0.000000 -51.855759
v 53.081181 0.000000 -50.438023
vn -0.9952 0.0000 -0.0980
vn -0.9569 0.0000 -0.2903
vn -0.8819 0.0000 -0.4714
vn -0.7730 0.0000 -0.6344
vn -0.6344 0.0000 -0.7730
vn -0.4714 0.0000 -0.8819
vn -0.2903 0.0000 -0.9569
vn -0.0980 0.0000 -0.9952
vn 0.0980 0.0000 -0.9952
vn 0.2903 0.0000 -0.9569
vn 0.4714 0.0000 -0.8819
vn 0.6344 0.0000 -0.7730
vn 0.7730 0.0000 -0.6344
vn 0.8819 0.0000 -0.4714
vn 0.9569 0.0000 -0.2903
vn 0.9952 0.0000 -0.0980
vn 0.9952 0.0000 0.0980
vn 0.9569 0.0000 0.2903
vn 0.8819 0.0000 0.4714
vn 0.7730 0.0000 0.6344
vn 0.6344 0.0000 0.7730
vn 0.4714 0.0000 0.8819
vn 0.2903 0.0000 0.9569
vn 0.0980 0.0000 0.9952
vn -0.0980 0.0000 0.9952
vn -0.2903 0.0000 0.9569
vn -0.4714 0.0000 0.8819
vn -0.6344 0.0000 0.7730
vn -0.7730 0.0000 0.6344
vn -0.8819 0.0000 0.4714
vn -0.9569 0.0000 0.2903
vn -0.9952 0.0000 0.0980
vn 0.0000 1.0000 -0.0000
vn 0.0000 -1.0000 0.0000
vn 0.0000 0.0000 -1.0000
vn -1.0000 0.0000 0.0000
vn 0.0000 0.0000 1.0000
vn 1.0000 0.0000 0.0000
vn -0.9511 0.0000 0.3090
vn -0.5878 0.0000 -0.8090
vn 0.5878 0.0000 -0.8090
vn 0.9511 0.0000 0.3090
vn -0.8660 0.0000 -0.5000
vn 0.8660 0.0000 -0.5000
usemtl None
s off
f 1//1 2//1 3//1
f 4//2 1//2 5//2
f 6//3 4//3 7//3
f 8//4 6//4 9//4
f 10//5 8//5 11//5
f 12//6 10//6 13//6
f 14//7 12//7 15//7
f 16//8 14//8 17//8
f 18//9 16//9 19//9
f 20//10 18//10 21//10
f 22//11 20//11 23//11
f 24//12 22//12 25//12
f 26//13 24//13 27//13
f 28//14 26//14 29//14
f 30//15 28//15 31//15
f 32//16 30//16 33//16
f 34//17 32//17 35//17
f 36//18 34//18 37//18
f 38//19 36//19 39//19
f 40//20 38//20 41//20
f 42//21 40//21 43//21
f 44//22 42//22 45//22
f 46//23 44//23 47//23
f 48//24 46//24 49//24
f 50//25 48//25 51//25
f 52//26 50//26 53//26
f 54//27 52//27 55//27
f 56//28 54//28 57//28
f 58//29 56//29 59//29
f 60//30 58//30 61//30
f 62//31 60//31 63//31
f 2//32 62//32 64//32
f 64//32 3//32 2//32
f 63//31 64//31 62//31
f 61//30 63//30 60//30
f 59//29 61//29 58//29
f 57//28 59//28 56//28
f 55//27 57//27 54//27
f 53//26 55//26 52//26
f 51//25 53//25 50//25
f 49//24 51//24 48//24
f 47//23 49//23 46//23
f 45//22 47//22 44//22
f 43//21 45//21 42//21
f 41//20 43//20 40//20
f 39//19 41//19 38//19
f 37//18 39//18 36//18
f 35//17 37//17 34//17
f 33//16 35//16 32//16
f 31//15 33//15 30//15
f 29//14 31//14 28//14
f 27//13 29//13 26//13
f 25//12 27//12 24//12
f 23//11 25//11 22//11
f 21//10 23//10 20//10
f 19//9 21//9 18//9
f 17//8 19//8 16//8
f 15//7 17//7 14//7
f 13//6 15//6 12//6
f 11//5 13//5 10//5
f 9//4 11//4 8//4
f 7//3 9//3 6//3
f 5//2 7//2 4//2
f 3//1 5//1 1//1
f 65//33 32//33 34//33
f 66//33 30//33 32//33
f 32//33 65//33 66//33
f 66//33 22//33 24//33
f 66//33 28//33 30//33
f 66//33 20//33 22//33
f 66//33 67//33 18//33
f 68//33 46//33 48//33
f 66//33 26//33 28//33
f 18//33 20//33 66//33
f 67//33 12//33 14//33
f 48//33 50//33 68//33
f 65//33 36//33 38//33
f 24//33 26//33 66//33
f 67//33 10//33 12//33
f 68//33 52//33 54//33
f 68//33 44//33 46//33
f 68//33 40//33 42//33
f 34//33 36//33 65//33
f 14//33 16//33 67//33
f 67//33 6//33 8//33
f 50//33 52//33 68//33
f 68//33 38//33 40//33
f 65//33 69//33 70//33
f 16//33 18//33 67//33
f 67//33 4//33 6//33
f 68//33 60//33 62//33
f 68//33 56//33 58//33
f 42//33 44//33 68//33
f 71//33 72//33 73//33
f 71//33 74//33 75//33
f 70//33 76//33 65//33
f 8//33 10//33 67//33
f 67//33 2//33 1//33
f 62//33 67//33 68//33
f 54//33 56//33 68//33
f 77//33 73//33 70//33
f 75//33 72//33 71//33
f 65//33 68//33 69//33
f 1//33 4//33 67//33
f 58//33 60//33 68//33
f 78//33 79//33 68//33
f 73//33 77//33 71//33
f 76//33 74//33 65//33
f 38//33 68//33 65//33
f 68//33 67//33 78//33
f 78//33 71//33 77//33
f 76//33 75//33 74//33
f 80//33 66//33 74//33
f 62//33 2//33 67//33
f 70//33 69//33 77//33
f 66//33 80//33 67//33
f 74//33 71//33 80//33
f 77//33 79//33 78//33
f 81//34 47//34 45//34
f 45//34 82//34 81//34
f 81//34 53//34 51//34
f 45//34 43//34 82//34
f 51//34 49//34 81//34
f 43//34 41//34 82//34
f 81//34 55//34 53//34
f 82//34 37//34 35//34
f 49//34 47//34 81//34
f 81//34 59//34 57//34
f 82//34 39//34 37//34
f 57//34 55//34 81//34
f 41//34 39//34 82//34
f 81//34 63//34 61//34
f 81//34 83//34 64//34
f 61//34 59//34 81//34
f 83//34 3//34 64//34
f 64//34 63//34 81//34
f 83//34 7//34 5//34
f 83//34 11//34 9//34
f 83//34 19//34 17//34
f 84//34 25//34 23//34
f 29//34 84//34 85//34
f 5//34 3//34 83//34
f 83//34 13//34 11//34
f 17//34 15//34 83//34
f 83//34 84//34 21//34
f 84//34 27//34 25//34
f 85//34 33//34 31//34
f 85//34 31//34 29//34
f 82//34 86//34 87//34
f 9//34 7//34 83//34
f 21//34 19//34 83//34
f 84//34 29//34 27//34
f 85//34 35//34 33//34
f 82//34 88//34 86//34
f 15//34 13//34 83//34
f 87//34 89//34 82//34
f 90//34 91//34 92//34
f 93//34 83//34 81//34
f 23//34 21//34 84//34
f 88//34 94//34 86//34
f 90//34 95//34 94//34
f 91//34 89//34 92//34
f 35//34 85//34 82//34
f 84//34 94//34 88//34
f 89//34 81//34 82//34
f 92//34 95//34 90//34
f 93//34 96//34 91//34
f 88//34 85//34 84//34
f 94//34 84//34 90//34
f 81//34 96//34 93//34
f 91//34 90//34 93//34
f 87//34 92//34 89//34
f 93//35 90//35 71//35
f 71//35 78//35 93//35
f 90//36 84//36 80//36
f 80//36 71//36 90//36
f 84//37 83//37 67//37
f 67//37 80//37 84//37
f 78//38 67//38 83//38
f 83//38 93//38 78//38
f 72//37 95//37 92//37
f 92//37 73//37 72//37
f 73//39 92//39 87//39
f 87//39 70//39 73//39
f 70//40 87//40 86//40
f 86//40 76//40 70//40
f 76//41 86//41 94//41
f 94//41 75//41 76//41
f 72//42 75//42 94//42
f 94//42 95//42 72//42
f 74//37 88//37 82//37
f 82//37 65//37 74//37
f 82//43 85//43 66//43
f 66//43 65//43 82//43
f 74//44 66//44 85//44
f 85//44 88//44 74//44
f 77//37 91//37 96//37
f 96//37 79//37 77//37
f 79//36 96//36 81//36
f 81//36 68//36 79//36
f 68//35 81//35 89//35
f 89//35 69//35 68//35
f 69//38 89//38 91//38
f 91//38 77//38 69//38
